<?xml version="1.0" encoding="UTF-8"?>
<svg version="1.1" xmlns="http://www.w3.org/2000/svg" width="148" height="105">
<path d="M0 0 C2.32209519 1.03502693 3.21802374 1.99905537 4.72607422 4.03271484 C5.22856689 4.69948242 5.73105957 5.36625 6.2487793 6.05322266 C6.78011475 6.7812207 7.3114502 7.50921875 7.85888672 8.25927734 C8.69359497 9.38221191 8.69359497 9.38221191 9.54516602 10.52783203 C10.73722381 12.13360303 11.92515601 13.74244327 13.109375 15.35400391 C15.02911223 17.94532413 16.98448488 20.50625814 18.94873047 23.06396484 C20.23183555 24.75364922 21.51440121 26.44374338 22.79638672 28.13427734 C23.72136963 29.32996338 23.72136963 29.32996338 24.66503906 30.54980469 C25.51316162 31.68216553 25.51316162 31.68216553 26.37841797 32.83740234 C26.88219971 33.49901367 27.38598145 34.160625 27.9050293 34.84228516 C29.22183568 37.33465189 29.1852973 39.10499247 28.98388672 41.88427734 C27.59085067 42.02084951 26.19382551 42.11698883 24.79638672 42.19677734 C24.01908203 42.25478516 23.24177734 42.31279297 22.44091797 42.37255859 C16.52861557 41.19761774 12.45804562 33.88579804 8.85888672 29.32177734 C8.33423828 28.66242187 7.80958984 28.00306641 7.26904297 27.32373047 C5.20283734 24.72135756 3.160118 22.13360904 1.24169922 19.41943359 C0.82662109 18.91283203 0.41154297 18.40623047 -0.01611328 17.88427734 C-0.67611328 17.88427734 -1.33611328 17.88427734 -2.01611328 17.88427734 C-3.31612164 19.26718961 -3.31612164 19.26718961 -4.59033203 21.10302734 C-5.08944092 21.78494141 -5.5885498 22.46685547 -6.1027832 23.16943359 C-6.63105713 23.90033203 -7.15933105 24.63123047 -7.70361328 25.38427734 C-8.7958259 26.85417096 -9.8895631 28.32293301 -10.98486328 29.79052734 C-12.6935661 32.08973775 -14.38220452 34.39680507 -16.04736328 36.72802734 C-19.83190817 41.65507636 -19.83190817 41.65507636 -23.43798828 42.35302734 C-25.69852722 42.38110857 -27.78785253 42.24807502 -30.01611328 41.88427734 C-30.83251953 39.79833984 -30.83251953 39.79833984 -31.01611328 36.88427734 C-29.41787814 34.44857926 -27.85991042 32.43106002 -25.95361328 30.25927734 C-24.84574701 28.94206762 -23.74175854 27.6215893 -22.64111328 26.29833984 C-21.75939453 25.24114746 -21.75939453 25.24114746 -20.85986328 24.16259766 C-16.92865941 19.30481236 -13.31398975 14.20429234 -9.65063477 9.14355469 C-9.08932861 8.37221191 -8.52802246 7.60086914 -7.94970703 6.80615234 C-7.455271 6.12133789 -6.96083496 5.43652344 -6.45141602 4.73095703 C-2.65586943 -0.15244395 -2.65586943 -0.15244395 0 0 Z " fill="#FDFDFD" transform="translate(59.01611328125,30.11572265625)"/>
<path d="M0 0 C4.78508038 0.84349119 6.6812418 3.869114 9.5 7.5625 C10.27633789 8.55612549 10.27633789 8.55612549 11.06835938 9.56982422 C16.391442 16.41631016 21.58303998 23.36594799 26.73730469 30.34008789 C27.89448263 31.86128913 29.12395275 33.32678528 30.359375 34.78515625 C32 37 32 37 31.75 39.8125 C31.5025 40.534375 31.255 41.25625 31 42 C27.47620103 42.55933317 25.40562915 42.80987523 22 42 C14.16153557 35.95785034 8.59610622 26.10792843 3 18 C0.53199953 19.15173355 -1.04783565 20.04783565 -3 22 C-5.41088579 21.76668847 -6.78051858 21.15677244 -8.75 19.75 C-10.53441165 17.25182369 -10.42289239 16.04905413 -10 13 C-8.40371172 10.56851089 -6.83796622 8.4154131 -5 6.1875 C-4.52304688 5.59001953 -4.04609375 4.99253906 -3.5546875 4.37695312 C-2.38055765 2.90929082 -1.19169197 1.45343861 0 0 Z " fill="#FDFDFD" transform="translate(88,30)"/>
<path d="M0 0 C3.14632918 0.31678058 4.61766446 0.59895442 6.8359375 2.92578125 C7.34382813 3.71339844 7.85171875 4.50101563 8.375 5.3125 C9.16003906 6.48232422 9.16003906 6.48232422 9.9609375 7.67578125 C11 10 11 10 10 14 C4.39 14 -1.22 14 -7 14 C-7 8.64962552 -6.71430602 8.03318756 -3.5 4.1875 C-2.8503125 3.39730469 -2.200625 2.60710938 -1.53125 1.79296875 C-1.0259375 1.20128906 -0.520625 0.60960937 0 0 Z " fill="#FBFBFB" transform="translate(57,58)"/>
</svg>
